<svg width="16" height="16" viewBox="0 0 16 16" fill="none" xmlns="http://www.w3.org/2000/svg">
<path d="M14.9818 7.81272L13.9555 2.31272C13.9305 2.17866 13.8782 2.05114 13.802 1.93801C13.7259 1.82488 13.6273 1.72853 13.5125 1.65489C13.3977 1.58124 13.2691 1.53186 13.1345 1.50978C12.9999 1.48769 12.8622 1.49338 12.7299 1.52647L12.7105 1.5321L9.42804 2.50022H6.57179L3.28929 1.53522L3.26992 1.5296C3.13761 1.4965 2.99992 1.49082 2.86533 1.5129C2.73074 1.53499 2.60209 1.58437 2.48729 1.65801C2.37249 1.73166 2.27397 1.82801 2.19779 1.94114C2.12161 2.05427 2.06937 2.18178 2.04429 2.31585L1.01804 7.81272C0.974159 8.03287 1.00673 8.2614 1.11038 8.46051C1.21403 8.65963 1.38254 8.8174 1.58804 8.90772C1.71965 8.96808 1.86263 8.99962 2.00742 9.00022C2.18071 9.00014 2.35081 8.95352 2.49992 8.86522V11.5002C2.49992 12.1633 2.76331 12.7992 3.23215 13.268C3.70099 13.7368 4.33688 14.0002 4.99992 14.0002H10.9999C11.663 14.0002 12.2988 13.7368 12.7677 13.268C13.2365 12.7992 13.4999 12.1633 13.4999 11.5002V8.86585C13.6489 8.95398 13.8187 9.00059 13.9918 9.00085C14.1367 9.00043 14.2799 8.96911 14.4118 8.90897C14.6175 8.8186 14.7862 8.66063 14.8899 8.46125C14.9936 8.26187 15.026 8.03306 14.9818 7.81272ZM1.99992 8.00022L3.02679 2.50022L5.65617 3.27335L1.99992 8.00022ZM10.9999 13.0002H8.49992V12.2071L9.35367 11.354C9.44749 11.2602 9.5002 11.1329 9.5002 11.0002C9.5002 10.8675 9.44749 10.7403 9.35367 10.6465C9.25985 10.5527 9.1326 10.4999 8.99992 10.4999C8.86724 10.4999 8.73999 10.5527 8.64617 10.6465L7.99992 11.2933L7.35367 10.6465C7.25985 10.5527 7.1326 10.4999 6.99992 10.4999C6.86724 10.4999 6.73999 10.5527 6.64617 10.6465C6.55235 10.7403 6.49964 10.8675 6.49964 11.0002C6.49964 11.1329 6.55235 11.2602 6.64617 11.354L7.49992 12.2071V13.0002H4.99992C4.60209 13.0002 4.22056 12.8422 3.93926 12.5609C3.65795 12.2796 3.49992 11.898 3.49992 11.5002V7.6946L6.74492 3.50022H9.25429L12.4999 7.6946V11.5002C12.4999 11.898 12.3419 12.2796 12.0606 12.5609C11.7793 12.8422 11.3977 13.0002 10.9999 13.0002ZM13.9999 8.00022L10.3437 3.27335L12.973 2.50022L13.9999 8.00022ZM6.49992 8.75022C6.49992 8.89856 6.45593 9.04356 6.37352 9.1669C6.29111 9.29024 6.17398 9.38637 6.03693 9.44313C5.89989 9.4999 5.74909 9.51475 5.6036 9.48581C5.45812 9.45687 5.32448 9.38544 5.21959 9.28055C5.1147 9.17566 5.04327 9.04203 5.01433 8.89654C4.98539 8.75106 5.00024 8.60026 5.05701 8.46321C5.11377 8.32617 5.2099 8.20903 5.33324 8.12662C5.45658 8.04421 5.60158 8.00022 5.74992 8.00022C5.94883 8.00022 6.1396 8.07924 6.28025 8.21989C6.4209 8.36055 6.49992 8.55131 6.49992 8.75022ZM10.9999 8.75022C10.9999 8.89856 10.9559 9.04356 10.8735 9.1669C10.7911 9.29024 10.674 9.38637 10.5369 9.44313C10.3999 9.4999 10.2491 9.51475 10.1036 9.48581C9.95812 9.45687 9.82448 9.38544 9.71959 9.28055C9.6147 9.17566 9.54327 9.04203 9.51433 8.89654C9.48539 8.75106 9.50024 8.60026 9.55701 8.46321C9.61378 8.32617 9.7099 8.20903 9.83324 8.12662C9.95658 8.04421 10.1016 8.00022 10.2499 8.00022C10.4488 8.00022 10.6396 8.07924 10.7802 8.21989C10.9209 8.36055 10.9999 8.55131 10.9999 8.75022Z" fill="black"/>
</svg>
