<svg width="16" height="16" viewBox="0 0 16 16" fill="none" xmlns="http://www.w3.org/2000/svg">
<path d="M8.49968 6.25C8.49968 6.39834 8.45569 6.54334 8.37328 6.66668C8.29087 6.79001 8.17374 6.88614 8.03669 6.94291C7.89965 6.99968 7.74885 7.01453 7.60336 6.98559C7.45788 6.95665 7.32424 6.88522 7.21935 6.78033C7.11446 6.67544 7.04303 6.5418 7.01409 6.39632C6.98515 6.25083 7 6.10003 7.05677 5.96299C7.11354 5.82594 7.20967 5.70881 7.333 5.6264C7.45634 5.54399 7.60134 5.5 7.74968 5.5C7.94859 5.5 8.13936 5.57902 8.28001 5.71967C8.42066 5.86032 8.49968 6.05109 8.49968 6.25ZM14.4997 8.0925C14.4715 9.77642 13.7927 11.3841 12.6054 12.5786C11.4182 13.7731 9.81465 14.4616 8.13093 14.5H7.99531C6.40128 14.5112 4.85944 13.9324 3.66655 12.875C3.5671 12.7866 3.50685 12.6622 3.49905 12.5294C3.49519 12.4636 3.50433 12.3977 3.52594 12.3355C3.54755 12.2732 3.5812 12.2158 3.62499 12.1666C3.66878 12.1173 3.72184 12.0772 3.78114 12.0484C3.84044 12.0197 3.90482 12.0029 3.9706 11.9991C4.10346 11.9913 4.23397 12.0366 4.33343 12.125C4.71014 12.4621 5.13318 12.7435 5.58968 12.9606L7.24968 10.6775C5.82593 10.0631 4.2828 10.3244 3.41218 10.4719C3.0437 10.5355 2.66475 10.494 2.31876 10.3522C1.97276 10.2104 1.67373 9.97395 1.45593 9.67L1.43718 9.64312L0.57593 8.26812C0.541003 8.21221 0.51748 8.14994 0.506713 8.0849C0.495946 8.01985 0.498148 7.95332 0.513193 7.88914C0.528238 7.82495 0.555829 7.76437 0.594377 7.71089C0.632925 7.6574 0.681669 7.61207 0.737805 7.5775L6.99968 3.72062V2C6.99968 1.86739 7.05236 1.74021 7.14613 1.64645C7.23989 1.55268 7.36707 1.5 7.49968 1.5H7.99968C8.86111 1.49991 9.71397 1.67106 10.5087 2.00348C11.3034 2.33591 12.0241 2.82298 12.6289 3.43639C13.2337 4.0498 13.7105 4.77732 14.0317 5.57664C14.3529 6.37597 14.5119 7.23116 14.4997 8.0925ZM13.4997 8.07875C13.5101 7.34988 13.3756 6.62621 13.1038 5.9498C12.8321 5.27339 12.4286 4.65775 11.9169 4.13865C11.4051 3.61956 10.7953 3.20738 10.1228 2.92607C9.45031 2.64475 8.72862 2.49993 7.99968 2.5V4C7.99963 4.08537 7.97771 4.16931 7.93603 4.24381C7.89435 4.31832 7.83428 4.38091 7.76156 4.42562L1.69093 8.16187L2.27593 9.09937C2.38626 9.24794 2.53584 9.36279 2.70786 9.43102C2.87987 9.49925 3.06751 9.51816 3.24968 9.48563C4.24968 9.31688 6.29781 8.97062 8.12906 9.99687C8.76856 9.96282 9.37071 9.68502 9.81166 9.22059C10.2526 8.75616 10.4988 8.14041 10.4997 7.5C10.4997 7.36739 10.5524 7.24021 10.6461 7.14645C10.7399 7.05268 10.8671 7 10.9997 7C11.1323 7 11.2595 7.05268 11.3532 7.14645C11.447 7.24021 11.4997 7.36739 11.4997 7.5C11.4985 8.38239 11.1644 9.23184 10.5643 9.87869C9.9641 10.5255 9.14201 10.9222 8.26218 10.9894L6.5678 13.3194C7.07148 13.45 7.59071 13.5107 8.11093 13.5C9.53528 13.4668 10.8916 12.884 11.896 11.8735C12.9004 10.8631 13.4751 9.50327 13.4997 8.07875Z" fill="black"/>
</svg>
